<svg width="250" height="82" viewBox="0 0 250 82" fill="none" xmlns="http://www.w3.org/2000/svg">
<path d="M0 13C0 7.47715 4.47715 3 10 3H168V82H10C4.47715 82 0 77.5229 0 72V13Z" fill="#D9D9D9"/>
<path d="M172 3H240C245.523 3 250 7.47715 250 13V72C250 77.5229 245.523 82 240 82H172V3Z" fill="#214DB0"/>
<path d="M24.45 61H18.564V22.768H24.45V35.404C27.114 34.072 29.58 33.406 31.848 33.406C35.448 33.406 37.896 34.432 39.192 36.484C40.524 38.5 41.19 41.848 41.19 46.528V61H35.304V46.69C35.304 43.774 34.998 41.704 34.386 40.48C33.774 39.256 32.478 38.644 30.498 38.644C28.77 38.644 27.042 38.932 25.314 39.508L24.45 39.832V61ZM71.0465 56.14L72.5585 55.978L72.6665 60.352C68.5625 61.18 64.9265 61.594 61.7585 61.594C57.7625 61.594 54.8825 60.496 53.1185 58.3C51.3905 56.104 50.5265 52.594 50.5265 47.77C50.5265 38.194 54.4325 33.406 62.2445 33.406C69.8045 33.406 73.5845 37.528 73.5845 45.772L73.2065 49.984H56.4665C56.5025 52.216 56.9885 53.854 57.9245 54.898C58.8605 55.942 60.6065 56.464 63.1625 56.464C65.7185 56.464 68.3465 56.356 71.0465 56.14ZM67.8065 45.448C67.8065 42.784 67.3745 40.93 66.5105 39.886C65.6825 38.806 64.2605 38.266 62.2445 38.266C60.2285 38.266 58.7525 38.824 57.8165 39.94C56.9165 41.056 56.4485 42.892 56.4125 45.448H67.8065ZM83.0244 61V34H88.9104V61H83.0244ZM83.0244 29.41V23.2H88.9104V29.41H83.0244ZM118.568 39.562C114.32 38.986 111.242 38.698 109.334 38.698C107.426 38.698 106.094 38.932 105.338 39.4C104.618 39.832 104.258 40.534 104.258 41.506C104.258 42.478 104.654 43.162 105.446 43.558C106.274 43.954 108.182 44.422 111.17 44.962C114.194 45.466 116.336 46.276 117.596 47.392C118.856 48.508 119.486 50.488 119.486 53.332C119.486 56.176 118.568 58.264 116.732 59.596C114.932 60.928 112.286 61.594 108.794 61.594C106.598 61.594 103.826 61.288 100.478 60.676L98.8038 60.406L99.0198 55.492C103.34 56.068 106.454 56.356 108.362 56.356C110.27 56.356 111.62 56.122 112.412 55.654C113.24 55.186 113.654 54.412 113.654 53.332C113.654 52.252 113.258 51.514 112.466 51.118C111.71 50.686 109.856 50.236 106.904 49.768C103.988 49.264 101.846 48.49 100.478 47.446C99.1098 46.402 98.4258 44.494 98.4258 41.722C98.4258 38.95 99.3618 36.88 101.234 35.512C103.142 34.144 105.572 33.46 108.524 33.46C110.828 33.46 113.654 33.748 117.002 34.324L118.676 34.648L118.568 39.562ZM148.146 56.14L149.658 55.978L149.766 60.352C145.662 61.18 142.026 61.594 138.858 61.594C134.862 61.594 131.982 60.496 130.218 58.3C128.49 56.104 127.626 52.594 127.626 47.77C127.626 38.194 131.532 33.406 139.344 33.406C146.904 33.406 150.684 37.528 150.684 45.772L150.306 49.984H133.566C133.602 52.216 134.088 53.854 135.024 54.898C135.96 55.942 137.706 56.464 140.262 56.464C142.818 56.464 145.446 56.356 148.146 56.14ZM144.906 45.448C144.906 42.784 144.474 40.93 143.61 39.886C142.782 38.806 141.36 38.266 139.344 38.266C137.328 38.266 135.852 38.824 134.916 39.94C134.016 41.056 133.548 42.892 133.512 45.448H144.906Z" fill="#1E1E1E"/>
<rect x="205" y="17" width="11" height="52" rx="5.5" fill="white"/>
<path d="M190.5 50C187.462 50 185 47.5376 185 44.5V44.5C185 41.4624 187.462 39 190.5 39H212V50H190.5Z" fill="white"/>
<path d="M231.5 39C234.538 39 237 41.4624 237 44.5V44.5C237 47.5376 234.538 50 231.5 50H223.5C220.462 50 218 47.5376 218 44.5V44.5C218 41.4624 220.462 39 223.5 39H231.5Z" fill="white"/>
</svg>
